<svg width="151" height="150" viewBox="0 0 151 150" fill="none" xmlns="http://www.w3.org/2000/svg">
<g clip-path="url(#clip0_13_15)">
<path d="M19.543 80.8594C14.7679 71.9386 13.3581 61.5988 15.5707 51.7253C17.7832 41.8517 23.4708 33.1023 31.5961 27.0724C39.7215 21.0425 49.7434 18.1338 59.8345 18.8766C69.9256 19.6195 79.4135 23.9644 86.5683 31.1192C93.7231 38.274 98.068 47.7619 98.8109 57.853C99.5537 67.9441 96.645 77.966 90.6151 86.0914C84.5852 94.2168 75.8358 99.9043 65.9623 102.117C56.0887 104.329 45.7489 102.92 36.8281 98.1445L20.5625 102.926C19.7548 103.163 18.8982 103.178 18.0825 102.97C17.2669 102.762 16.5224 102.338 15.9272 101.743C15.3319 101.148 14.908 100.403 14.6998 99.5874C14.4916 98.7717 14.507 97.9151 14.7441 97.1074L19.543 80.8594Z" stroke="#0A8CBB" stroke-width="10" stroke-linecap="round" stroke-linejoin="round"/>
<path d="M96.5586 46.9395C103.646 47.3247 110.521 49.4918 116.548 53.2401C122.575 56.9883 127.559 62.1966 131.038 68.3827C134.518 74.5688 136.381 81.5327 136.454 88.6299C136.527 95.727 134.808 102.728 131.457 108.984L136.238 125.25C136.475 126.058 136.491 126.914 136.283 127.73C136.074 128.546 135.65 129.29 135.055 129.885C134.46 130.481 133.716 130.905 132.9 131.113C132.084 131.321 131.228 131.306 130.42 131.068L114.172 126.27C108.805 129.14 102.88 130.816 96.8045 131.182C90.729 131.549 84.646 130.597 78.9726 128.393C73.2992 126.188 68.1696 122.783 63.9354 118.411C59.7012 114.038 56.4625 108.802 54.4414 103.061" stroke="#0A8CBB" stroke-width="10" stroke-linecap="round" stroke-linejoin="round"/>
</g>
<defs>
<clipPath id="clip0_13_15">
<rect width="150" height="150" fill="white" transform="translate(0.5)"/>
</clipPath>
</defs>
</svg>
