<svg width="262" height="256" viewBox="0 0 262 256" fill="none" xmlns="http://www.w3.org/2000/svg">
<path fill-rule="evenodd" clip-rule="evenodd" d="M134.25 255.5H128.25C57.6956 255.5 0.5 198.304 0.5 127.75C0.5 57.1956 57.6956 0 128.25 0H134.25C204.804 0 262 57.1956 262 127.75C262 198.304 204.804 255.5 134.25 255.5ZM71.75 96.5C64.9845 96.5 59.5 101.985 59.5 108.75C59.5 115.515 64.9845 121 71.75 121C78.5155 121 84 115.515 84 108.75C84 101.985 78.5155 96.5 71.75 96.5ZM178 108.75C178 101.985 183.485 96.5 190.25 96.5C197.015 96.5 202.5 101.985 202.5 108.75C202.5 115.515 197.015 121 190.25 121C183.485 121 178 115.515 178 108.75ZM177.5 169.5H87C82.8579 169.5 79.5 166.142 79.5 162C79.5 157.858 82.8579 154.5 87 154.5H177.5C181.642 154.5 185 157.858 185 162C185 166.142 181.642 169.5 177.5 169.5Z" fill="white"/>
</svg>
