<svg viewBox="0 0 262 256" fill="none" xmlns="http://www.w3.org/2000/svg">
<path fill-rule="evenodd" clip-rule="evenodd" d="M133.75 255.5H127.75C57.1956 255.5 0 198.304 0 127.75C0 57.1956 57.1956 0 127.75 0H133.75C204.304 0 261.5 57.1956 261.5 127.75C261.5 198.304 204.304 255.5 133.75 255.5ZM72.25 98.5C65.4845 98.5 60 103.985 60 110.75C60 117.515 65.4845 123 72.25 123C79.0155 123 84.5 117.515 84.5 110.75C84.5 103.985 79.0155 98.5 72.25 98.5ZM178.5 110.75C178.5 103.985 183.985 98.5 190.75 98.5C197.515 98.5 203 103.985 203 110.75C203 117.515 197.515 123 190.75 123C183.985 123 178.5 117.515 178.5 110.75ZM173.5 181.5H90C98.7789 166.436 106.409 159.955 124.625 157.347C129.84 156.601 135.156 156.607 140.367 157.378C157.796 159.957 165.591 166.204 173.5 181.5Z" fill="#F80000"/>
</svg>
