<svg viewBox="0 0 262 256" fill="none" xmlns="http://www.w3.org/2000/svg">
<path fill-rule="evenodd" clip-rule="evenodd" d="M133.75 255.5H127.75C57.1956 255.5 0 198.304 0 127.75C0 57.1956 57.1956 0 127.75 0H133.75C204.304 0 261.5 57.1956 261.5 127.75C261.5 198.304 204.304 255.5 133.75 255.5ZM70.75 98.5C63.9845 98.5 58.5 103.985 58.5 110.75C58.5 117.515 63.9845 123 70.75 123C77.5155 123 83 117.515 83 110.75C83 103.985 77.5155 98.5 70.75 98.5ZM177 110.75C177 103.985 182.485 98.5 189.25 98.5C196.015 98.5 201.5 103.985 201.5 110.75C201.5 117.515 196.015 123 189.25 123C182.485 123 177 117.515 177 110.75ZM184.5 157C142.15 168.12 118.35 167.854 76 157C80.4739 175.541 88.343 185.591 105.743 193.529C121.083 200.527 139.23 201.363 154.332 193.866C168.815 186.676 176.729 176.064 184.5 157Z" fill="#00ca2c"/>
</svg>
