<svg width="1479" height="1008" viewBox="0 0 1479 1008" fill="none" xmlns="http://www.w3.org/2000/svg">
<g id="logo-minhafacomp-svg">
<g id="ilustracao">
<path id="Exclude" fill-rule="evenodd" clip-rule="evenodd" d="M90 644.19H466.5C474.483 532.216 502.712 480.776 593.5 408.69L413.5 90.6902C227.5 197.19 90 408.69 90 644.19ZM329.75 554.5H335.75C406.304 554.5 463.5 497.304 463.5 426.75C463.5 356.196 406.304 299 335.75 299H329.75C259.196 299 202 356.196 202 426.75C202 497.304 259.196 554.5 329.75 554.5ZM262 409.75C262 402.984 267.485 397.5 274.25 397.5C281.015 397.5 286.5 402.984 286.5 409.75C286.5 416.516 281.015 422 274.25 422C267.485 422 262 416.516 262 409.75ZM392.75 397.5C385.984 397.5 380.5 402.984 380.5 409.75C380.5 416.516 385.984 422 392.75 422C399.516 422 405 416.516 405 409.75C405 402.984 399.516 397.5 392.75 397.5ZM292 480.5H375.5C367.591 465.204 359.796 458.957 342.367 456.378C337.156 455.607 331.84 455.601 326.625 456.347C308.409 458.955 300.779 465.436 292 480.5Z" fill="#F05831"/>
<path id="Exclude_2" fill-rule="evenodd" clip-rule="evenodd" d="M425.5 87.19L605.5 401.19C715.787 357.292 775.702 358.327 879.5 401.19L1063 87.19C857.5 -30.31 618 -27.8099 425.5 87.19ZM736.75 321.5H742.75C813.304 321.5 870.5 264.304 870.5 193.75C870.5 123.196 813.304 66 742.75 66H736.75C666.196 66 609 123.196 609 193.75C609 264.304 666.196 321.5 736.75 321.5ZM668 174.75C668 167.984 673.485 162.5 680.25 162.5C687.016 162.5 692.5 167.984 692.5 174.75C692.5 181.515 687.016 187 680.25 187C673.485 187 668 181.515 668 174.75ZM798.75 162.5C791.984 162.5 786.5 167.984 786.5 174.75C786.5 181.515 791.984 187 798.75 187C805.516 187 811 181.515 811 174.75C811 167.984 805.516 162.5 798.75 162.5ZM695.5 235.5H786C790.142 235.5 793.5 232.142 793.5 228C793.5 223.858 790.142 220.5 786 220.5H695.5C691.358 220.5 688 223.858 688 228C688 232.142 691.358 235.5 695.5 235.5Z" fill="#FEBD59"/>
<path id="Exclude_3" fill-rule="evenodd" clip-rule="evenodd" d="M893 407.69C982.611 479.548 1013.48 530.13 1022.5 644.69H1394C1394 407.69 1256.5 199.19 1076 94.6902L893 407.69ZM1146.75 554.5H1152.75C1223.3 554.5 1280.5 497.304 1280.5 426.75C1280.5 356.196 1223.3 299 1152.75 299H1146.75C1076.2 299 1019 356.196 1019 426.75C1019 497.304 1076.2 554.5 1146.75 554.5ZM1077.5 409.75C1077.5 402.984 1082.98 397.5 1089.75 397.5C1096.52 397.5 1102 402.984 1102 409.75C1102 416.516 1096.52 422 1089.75 422C1082.98 422 1077.5 416.516 1077.5 409.75ZM1208.25 397.5C1201.48 397.5 1196 402.984 1196 409.75C1196 416.516 1201.48 422 1208.25 422C1215.02 422 1220.5 416.516 1220.5 409.75C1220.5 402.984 1215.02 397.5 1208.25 397.5ZM1095 456C1137.35 466.854 1161.15 467.12 1203.5 456C1195.73 475.064 1187.81 485.676 1173.33 492.866C1158.23 500.363 1140.08 499.527 1124.74 492.529C1107.34 484.591 1099.47 474.541 1095 456Z" fill="#46BED9"/>
<path id="ponteiro" fill-rule="evenodd" clip-rule="evenodd" d="M718.815 607.587L990.332 471.775C991.588 471.147 993.114 471.507 993.956 472.631C994.838 473.806 994.703 475.455 993.642 476.472L772.073 688.843C758.611 701.746 738.886 705.668 721.513 698.895C703.114 691.723 691 673.998 691 654.251V652.601C691 633.54 701.768 616.114 718.815 607.587ZM739.501 673.19C727.351 673.19 717.501 663.34 717.501 651.19C717.501 639.04 727.351 629.19 739.501 629.19C751.651 629.19 761.501 639.04 761.501 651.19C761.501 663.34 751.651 673.19 739.501 673.19Z" fill="#40A3EA"/>
</g>
<path id="logo-minha" fill-rule="evenodd" clip-rule="evenodd" d="M274.144 797.178L256.76 812.63C254.338 814.783 254.943 818.428 256.548 821.243C258.051 823.879 257.339 826.67 255.003 830.858L232.578 869.392C225.657 881.284 230.801 896.551 243.508 901.829C248.957 904.093 255.072 904.149 260.562 901.988L267.617 899.21C271.952 897.503 276.836 897.927 280.812 900.356C285.566 903.26 291.732 902.39 295.389 898.187C303.86 888.453 310.976 879.369 317.886 870.547C331.43 853.257 344.185 836.974 364.813 818.772C366.036 817.692 367.897 817.752 369.051 818.906C370.165 820.02 370.269 821.79 369.306 823.036C354.768 841.835 344.455 859.069 339.096 879.123C336.633 888.339 341.922 897.56 350.6 901.522C355.97 903.973 362.106 904.136 367.598 901.972L368 901.814C372.828 899.912 378.192 899.878 383.044 901.718L383.977 902.072C387.598 903.445 391.697 902.406 394.235 899.482C420.096 869.69 436.833 850.532 465.646 820.282C466.46 819.427 467.721 819.145 468.817 819.583C470.481 820.249 471.141 822.256 470.205 823.785C458.231 843.33 448.81 860.119 442.385 879.392C439.71 887.416 443.041 896.068 449.947 900.952C455.601 904.951 462.885 905.842 469.336 903.322L485.664 896.944C489.041 895.625 492.817 895.934 495.99 897.688C499.978 899.892 503.362 901.489 508.011 902.682C509.971 903.185 512.035 903.16 513.998 902.669C530.496 898.545 540.477 890.355 552.17 876.758C554.002 874.627 557.552 875.882 557.677 878.69C558.199 890.435 560.438 898.717 571.591 902.736C572.841 903.187 574.178 903.358 575.507 903.358H581.235C584.042 903.358 586.824 902.723 589.291 901.386C599.258 895.988 605.776 890.557 616.067 878.855C616.352 878.531 616.569 878.142 616.688 877.727C618.382 871.811 618.571 867.866 617.734 863.168C617.319 860.84 614.413 860.131 612.798 861.859C605.022 870.181 599.4 875.622 590.385 883.202C589.479 883.964 588.409 884.511 587.263 884.807L584.901 885.417C579.433 886.828 574.292 882.274 575.591 876.777C580.591 855.624 591.451 837.371 604.351 816.497C607.356 811.634 605.445 805.242 600.261 802.835C597.576 801.588 594.465 801.658 591.839 803.024L585.686 806.223C584.313 806.937 582.683 806.96 581.29 806.285C572.162 801.859 561.541 801.163 552.298 805.344C521.582 819.24 505.988 836.653 493.829 868.181C493.276 869.615 492.54 870.988 491.592 872.197C485.488 879.985 480.969 883.45 474.327 886.637C471.935 887.785 469.139 887.646 466.788 886.419C462.479 884.171 460.79 878.869 463.005 874.543L494.823 812.404C498.347 805.522 494.951 797.116 487.636 794.614C484.358 793.492 480.749 793.739 477.725 795.43C460.588 805.018 447.277 816.587 432.677 835.201C431.717 836.424 429.997 836.754 428.664 835.954C427.201 835.076 426.739 833.171 427.638 831.72L499.775 715.296C502.545 710.825 500.75 704.937 495.956 702.772C492.197 701.075 487.757 702.246 485.357 705.6C453.275 750.44 436.73 783.461 414.878 827.072C409.585 837.638 403.979 848.825 397.766 860.952C396.28 863.853 394.245 866.462 391.795 868.612L373.501 884.666C371.877 886.091 369.846 886.967 367.695 887.168C361.176 887.779 355.699 882.164 357.514 875.873C361.392 862.43 368.304 853.088 376.114 842.532C381.951 834.643 388.289 826.076 394.238 814.613C397.564 808.204 395.196 800.448 389.214 796.406C384.227 793.036 377.694 792.914 372.662 796.215C360.829 803.978 352.681 810.343 342.7 821.87C341.707 823.017 340.046 823.336 338.714 822.609C337.016 821.683 336.527 819.471 337.675 817.915L346.357 806.152C348.902 802.705 348.098 797.837 344.581 795.39C341.623 793.333 337.607 793.627 335.079 796.194C317.709 813.835 307.914 831.359 299.402 846.588C289.509 864.29 281.348 878.891 265.038 886.971C263.098 887.932 260.868 888.074 258.768 887.549C252.348 885.944 249.223 878.665 252.48 872.905L288.668 808.909C291.309 804.239 289.543 798.31 284.778 795.845C281.299 794.046 277.071 794.575 274.144 797.178ZM154.454 715.854C86.4875 782.204 53.6461 827.969 2.039 907.086C-1.412 912.377 -0.39323 919.421 4.41968 923.512C10.4295 928.62 19.6037 926.984 23.5444 920.151C59.0902 858.519 87.1705 819.091 138.308 759.172C138.719 758.691 139.399 758.516 139.986 758.751C140.798 759.076 141.151 760.031 140.746 760.806L78.8106 879.252C75.592 885.407 77.9221 893.007 84.038 896.3C89.0439 898.995 95.2318 898.031 99.1802 893.94L229.938 758.462C230.523 757.855 231.492 757.847 232.088 758.443C232.615 758.969 232.671 759.81 232.231 760.41C200.145 804.146 180.157 835.301 155.21 878.434C150.819 886.027 152.99 895.71 160.169 900.751L161.59 901.749C167.276 905.741 174.841 905.891 180.597 902.001C198.946 889.602 210.202 880.378 226.356 865.422C227.091 864.742 227.552 863.801 227.612 862.801C227.99 856.399 227.4 851.784 225.89 846.345C225.015 843.194 220.87 842.62 218.933 845.254C209.348 858.292 201.519 866.152 187.011 875.571C185.757 876.385 184.181 876.529 182.793 875.974C180.059 874.88 179.02 871.544 180.638 869.084C218.847 810.965 243.347 776.613 285.712 720.817C288.048 717.74 286.176 713.273 282.34 712.808L261.846 710.324C259.393 710.026 256.905 710.766 255.005 712.346C198.418 759.413 169.39 789.179 123.013 843.101C122.142 844.114 120.664 844.392 119.496 843.743C118.124 842.981 117.64 841.245 118.419 839.883L188.083 718.089C189.336 715.899 188.276 713.097 185.849 712.408C176.137 709.653 169.306 709.685 159.19 712.945C157.412 713.518 155.79 714.55 154.454 715.854ZM314.675 765.574L307.281 774.201C304.375 777.591 299.261 777.958 295.9 775.018C292.621 772.148 292.23 767.186 295.02 763.838L302.294 755.11C305.168 751.661 310.297 751.205 313.734 754.092C317.186 756.992 317.609 762.151 314.675 765.574ZM570.711 815.907C541.431 825.886 518.837 850.963 508.161 878.258C507.405 880.191 507.715 882.367 508.912 884.062C511.099 887.16 515.487 887.681 518.338 885.181L549.503 857.858L577.446 826.476C579.929 823.687 579.583 819.391 576.685 817.037C575.007 815.673 572.758 815.21 570.711 815.907Z" fill="#FFF"/>
<g id="logo-facomp">
<g id="Vector 207">
<path d="M688.194 889.317H654V738.674H748.003V767.644H688.194V799.774H748.003V828.744H688.194V889.317Z" fill="#40A3EA"/>
<path d="M788.896 889.317H751.492L799.243 738.674H838.637L886.388 889.317H848.983L838.637 862.948H799.243L788.896 889.317Z" fill="#40A3EA"/>
<path d="M1184.85 816.194V811.797C1184.85 771.412 1152.11 738.674 1111.73 738.674C1071.34 738.674 1038.6 771.412 1038.6 811.797V816.194C1038.6 856.579 1071.34 889.317 1111.73 889.317C1152.11 889.317 1184.85 856.579 1184.85 816.194Z" fill="#40A3EA"/>
<path d="M1207.91 738.674L1195.18 889.317H1225.82L1234.74 801.881H1238.95L1269.62 889.317H1287.51L1315.23 801.881H1320.49L1326.96 889.317H1359.92L1345.59 738.674L1309.38 738.674L1276.3 825.583L1245.32 738.674H1207.91Z" fill="#40A3EA"/>
<path d="M1377.5 738.674V889.317H1421.1V832.431H1431.62C1457.51 832.431 1478.5 811.443 1478.5 785.552C1478.5 759.662 1457.51 738.674 1431.62 738.674H1377.5Z" fill="#40A3EA"/>
</g>
<path id="Vector 135" d="M1028.85 775.379L997.149 794.781C979.768 765.677 943.47 771.294 930.688 793.249C924.043 807.035 923.02 819.29 930.688 833.586C948.071 858.095 979.256 855.542 997.149 833.586L1028.85 851.968C993.06 906.601 923.532 896.389 898.48 851.968C884.082 826.438 884.885 797.845 898.48 775.379C926.598 728.914 994.593 722.277 1028.85 775.379Z" fill="#40A3EA"/>
</g>
<g id="semestre-2023-4">
<path id="Exclude_4" fill-rule="evenodd" clip-rule="evenodd" d="M1193.97 1006.69H1138C1141.87 986.553 1148.63 980.824 1156.98 973.743C1162.12 969.382 1167.87 964.507 1173.92 955.437C1176.92 950.944 1174.51 945.002 1169.39 943.293C1164.97 941.82 1160.24 944.486 1159.21 949.031L1157.89 954.881L1138.93 953.031C1138.93 916.949 1196.29 919.725 1193.05 953.031C1191.84 965.405 1184.78 971.373 1176.77 978.139C1172.82 981.471 1168.65 984.996 1164.83 989.575H1193.97V1006.69ZM1261.05 978.936V955.68C1261.05 940.352 1248.62 927.925 1233.29 927.925C1217.96 927.925 1205.54 940.352 1205.54 955.68V978.936C1205.54 994.264 1217.96 1006.69 1233.29 1006.69C1248.62 1006.69 1261.05 994.264 1261.05 978.936ZM1272.15 1006.69H1328.12V989.575H1298.98C1302.8 984.996 1306.97 981.471 1310.92 978.139C1318.93 971.373 1325.99 965.405 1327.2 953.031C1330.44 919.725 1273.07 916.949 1273.07 953.031L1292.04 954.881L1293.36 949.031C1294.39 944.486 1299.12 941.82 1303.54 943.293C1308.66 945.002 1311.07 950.944 1308.07 955.437C1302.02 964.507 1296.27 969.382 1291.13 973.743C1282.78 980.824 1276.02 986.553 1272.15 1006.69ZM1398.9 999.752V999.163C1398.9 995.331 1402 992.225 1405.84 992.225C1409.67 992.225 1412.78 995.331 1412.78 999.163V999.752C1412.78 1003.58 1409.67 1006.69 1405.84 1006.69C1402 1006.69 1398.9 1003.58 1398.9 999.752ZM1245 976V958C1245 951.373 1239.63 946 1233 946C1226.37 946 1221 951.373 1221 958V976C1221 982.627 1226.37 988 1233 988C1239.63 988 1245 982.627 1245 976Z" fill="#40A3EA"/>
<path id="num-quatro" fill-rule="evenodd" clip-rule="evenodd" d="M1446.07 1005.77H1461.8V986.673H1470.59V973.721H1461.8V927H1446.99L1416 973.721V986.673H1446.07V1005.77ZM1445.07 973.721V948.742L1429.34 973.721H1445.07Z" fill="#40A3EA"/>
<path id="num-tres" d="M1356 948.001H1337.5C1337.5 919.502 1392.5 920.502 1392.5 948.001C1392.5 957.002 1388.34 962.1 1380.5 966.001C1392.5 972.002 1394.5 977.502 1393.5 989.501C1389.23 1011.35 1348.86 1014.25 1338.4 993.057C1337.28 990.788 1337 988.216 1337 985.685V984.501H1354.5C1354.5 996.002 1375.5 996.502 1375.5 984.501C1375.5 982.063 1375.12 979.926 1374.32 978.169C1371.88 972.752 1364.51 973.001 1358.57 973.001H1355.5V959.501C1360.23 959.707 1362.87 959.681 1367.5 959.001C1373 957.502 1374.26 953.002 1374 948.001C1373.5 938.502 1357 938.502 1356 948.001Z" fill="#40A3EA"/>
</g>
</g>
</svg>
