<svg width="509" height="328" viewBox="0 0 509 328" fill="none" xmlns="http://www.w3.org/2000/svg">
<path fill-rule="evenodd" clip-rule="evenodd" d="M30.9841 228.056H160.601C163.349 188.415 173.068 170.204 204.323 144.684L142.355 32.106C78.321 69.809 30.9841 144.684 30.9841 228.056ZM113.522 196.304H115.588C139.877 196.304 159.568 176.055 159.568 151.078C159.568 126.1 139.877 105.852 115.588 105.852H113.522C89.2329 105.852 69.5421 126.1 69.5421 151.078C69.5421 176.055 89.2329 196.304 113.522 196.304ZM90.1982 145.059C90.1982 142.664 92.0865 140.723 94.4155 140.723C96.7444 140.723 98.6328 142.664 98.6328 145.059C98.6328 147.455 96.7444 149.396 94.4155 149.396C92.0865 149.396 90.1982 147.455 90.1982 145.059ZM135.211 140.723C132.882 140.723 130.994 142.664 130.994 145.059C130.994 147.455 132.882 149.396 135.211 149.396C137.541 149.396 139.428 147.455 139.428 145.059C139.428 142.664 137.541 140.723 135.211 140.723ZM100.526 170.106H129.273C126.55 164.691 123.866 162.479 117.866 161.566C116.072 161.294 114.242 161.291 112.447 161.555C106.175 162.479 103.549 164.773 100.526 170.106Z" fill="#F05831"/>
<path fill-rule="evenodd" clip-rule="evenodd" d="M146.486 30.8669L208.454 142.029C246.422 126.488 267.049 126.855 302.784 142.029L365.957 30.8669C295.21 -10.7303 212.758 -9.84524 146.486 30.8669ZM253.639 113.817H255.705C279.994 113.817 299.685 93.5687 299.685 68.5912C299.685 43.6137 279.994 23.3653 255.705 23.3653H253.639C229.35 23.3653 209.659 43.6137 209.659 68.5912C209.659 93.5687 229.35 113.817 253.639 113.817ZM229.971 61.8648C229.971 59.4695 231.859 57.5281 234.188 57.5281C236.518 57.5281 238.405 59.4695 238.405 61.8648C238.405 64.2598 236.518 66.2016 234.188 66.2016C231.859 66.2016 229.971 64.2598 229.971 61.8648ZM274.984 57.5281C272.655 57.5281 270.767 59.4695 270.767 61.8648C270.767 64.2598 272.655 66.2016 274.984 66.2016C277.313 66.2016 279.201 64.2598 279.201 61.8648C279.201 59.4695 277.313 57.5281 274.984 57.5281ZM239.438 83.3715H270.595C272.02 83.3715 273.177 82.1827 273.177 80.7164C273.177 79.25 272.02 78.0612 270.595 78.0612H239.438C238.012 78.0612 236.856 79.25 236.856 80.7164C236.856 82.1827 238.012 83.3715 239.438 83.3715Z" fill="#FEBD59"/>
<path fill-rule="evenodd" clip-rule="evenodd" d="M307.431 144.33C338.281 169.769 348.909 187.676 352.014 228.233H479.909C479.909 144.33 432.573 70.5171 370.432 33.5222L307.431 144.33ZM394.789 196.304H396.855C421.143 196.304 440.835 176.055 440.835 151.078C440.835 126.1 421.143 105.852 396.855 105.852H394.789C370.501 105.852 350.809 126.1 350.809 151.078C350.809 176.055 370.501 196.304 394.789 196.304ZM370.949 145.059C370.949 142.664 372.835 140.723 375.166 140.723C377.497 140.723 379.383 142.664 379.383 145.059C379.383 147.455 377.497 149.396 375.166 149.396C372.835 149.396 370.949 147.455 370.949 145.059ZM415.962 140.723C413.631 140.723 411.744 142.664 411.744 145.059C411.744 147.455 413.631 149.396 415.962 149.396C418.292 149.396 420.179 147.455 420.179 145.059C420.179 142.664 418.292 140.723 415.962 140.723ZM376.973 161.433C391.553 165.275 399.747 165.369 414.326 161.433C411.651 168.182 408.925 171.939 403.94 174.484C398.741 177.138 392.493 176.842 387.212 174.365C381.222 171.554 378.512 167.997 376.973 161.433Z" fill="#46BED9"/>
<path fill-rule="evenodd" clip-rule="evenodd" d="M247.465 215.097L340.939 167.017C341.372 166.795 341.897 166.922 342.187 167.32C342.491 167.736 342.444 168.32 342.079 168.68L265.8 243.864C261.165 248.432 254.375 249.82 248.394 247.422C242.06 244.883 237.889 238.608 237.889 231.617V231.033C237.889 224.285 241.596 218.116 247.465 215.097ZM254.586 238.322C250.404 238.322 247.013 234.835 247.013 230.534C247.013 226.232 250.404 222.745 254.586 222.745C258.769 222.745 262.16 226.232 262.16 230.534C262.16 234.835 258.769 238.322 254.586 238.322Z" fill="#40A3EA"/>
<path fill-rule="evenodd" clip-rule="evenodd" d="M94.379 282.216L88.3942 287.687C87.5604 288.449 87.7687 289.739 88.3212 290.736C88.8387 291.669 88.5935 292.657 87.7893 294.14L80.0691 307.781C77.6864 311.991 79.4574 317.396 83.832 319.265C85.7079 320.066 87.8131 320.086 89.7031 319.321L92.1319 318.338C93.6243 317.733 95.3057 317.883 96.6745 318.743C98.3112 319.771 100.434 319.463 101.693 317.975C104.609 314.529 107.059 311.313 109.438 308.19C114.101 302.069 118.492 296.305 125.593 289.861C126.014 289.479 126.655 289.5 127.052 289.908C127.436 290.303 127.472 290.929 127.14 291.37C122.135 298.026 118.585 304.127 116.74 311.226C115.892 314.489 117.713 317.753 120.7 319.156C122.549 320.024 124.661 320.081 126.552 319.315L126.691 319.259C128.353 318.586 130.199 318.574 131.87 319.225L132.191 319.351C133.438 319.837 134.849 319.469 135.722 318.434C144.626 307.887 150.388 301.105 160.307 290.396C160.587 290.093 161.021 289.993 161.399 290.148C161.971 290.384 162.199 291.094 161.876 291.636C157.754 298.555 154.511 304.499 152.299 311.322C151.378 314.162 152.525 317.225 154.902 318.954C156.849 320.37 159.356 320.685 161.577 319.793L167.199 317.535C168.361 317.068 169.661 317.178 170.753 317.799C172.126 318.579 173.291 319.144 174.892 319.567C175.567 319.745 176.277 319.736 176.953 319.562C182.633 318.102 186.069 315.203 190.094 310.389C190.725 309.635 191.947 310.079 191.99 311.073C192.17 315.231 192.941 318.163 196.78 319.586C197.211 319.745 197.671 319.806 198.129 319.806H200.101C201.067 319.806 202.025 319.581 202.874 319.108C206.305 317.197 208.549 315.274 212.092 311.131C212.19 311.017 212.265 310.879 212.306 310.732C212.889 308.638 212.954 307.241 212.666 305.578C212.523 304.754 211.523 304.503 210.967 305.115C208.29 308.061 206.354 309.987 203.251 312.67C202.939 312.94 202.57 313.134 202.176 313.239L201.363 313.455C199.48 313.954 197.71 312.342 198.157 310.396C199.879 302.907 203.618 296.445 208.059 289.056C209.093 287.334 208.435 285.071 206.651 284.219C205.726 283.778 204.655 283.802 203.751 284.286L201.633 285.418C201.16 285.671 200.599 285.679 200.119 285.44C196.977 283.873 193.32 283.627 190.138 285.107C179.564 290.027 174.195 296.191 170.009 307.353C169.819 307.86 169.566 308.346 169.239 308.774C167.138 311.532 165.582 312.758 163.296 313.886C162.472 314.293 161.509 314.244 160.7 313.809C159.217 313.013 158.635 311.136 159.398 309.605L170.352 287.607C171.565 285.17 170.396 282.194 167.877 281.309C166.749 280.911 165.506 280.999 164.465 281.597C158.566 284.992 153.983 289.087 148.957 295.677C148.626 296.11 148.034 296.227 147.575 295.944C147.072 295.633 146.913 294.958 147.222 294.445L172.056 253.228C173.01 251.646 172.392 249.561 170.742 248.795C169.448 248.194 167.919 248.609 167.093 249.796C156.048 265.67 150.352 277.36 142.829 292.799C141.007 296.54 139.077 300.5 136.938 304.793C136.426 305.821 135.726 306.744 134.882 307.505L128.584 313.189C128.025 313.693 127.326 314.003 126.586 314.074C124.341 314.291 122.456 312.303 123.081 310.076C124.416 305.317 126.795 302.009 129.484 298.272C131.493 295.48 133.675 292.447 135.723 288.389C136.868 286.12 136.053 283.374 133.994 281.943C132.277 280.75 130.028 280.707 128.296 281.875C124.222 284.624 121.417 286.877 117.981 290.958C117.639 291.364 117.067 291.477 116.608 291.219C116.024 290.892 115.855 290.108 116.251 289.558L119.24 285.393C120.116 284.173 119.839 282.45 118.628 281.583C117.61 280.855 116.227 280.959 115.357 281.868C109.377 288.113 106.005 294.317 103.074 299.708C99.6686 305.975 96.8591 311.144 91.2441 314.005C90.5762 314.345 89.8085 314.395 89.0855 314.209C86.8753 313.641 85.7995 311.064 86.9207 309.025L99.3791 286.369C100.288 284.716 99.6804 282.617 98.0399 281.744C96.8422 281.107 95.3866 281.295 94.379 282.216ZM53.1735 253.426C29.7749 276.915 18.4686 293.117 0.701962 321.126C-0.486106 322.999 -0.135376 325.493 1.52155 326.941C3.59054 328.749 6.74892 328.17 8.10558 325.751C20.3429 303.932 30.01 289.974 47.615 268.761C47.7565 268.591 47.9906 268.529 48.1927 268.612C48.4722 268.727 48.5938 269.066 48.4543 269.34L27.132 311.272C26.0239 313.451 26.8261 316.142 28.9316 317.307C30.655 318.261 32.7852 317.92 34.1446 316.472L79.1603 268.51C79.3617 268.295 79.6953 268.292 79.9004 268.503C80.0819 268.69 80.1011 268.987 79.9497 269.2C68.9035 284.683 62.0223 295.713 53.4338 310.982C51.9221 313.671 52.6695 317.098 55.141 318.883L55.6302 319.236C57.5877 320.65 60.1921 320.703 62.1737 319.326C68.4907 314.936 72.3658 311.671 77.9271 306.376C78.1801 306.135 78.3388 305.802 78.3595 305.448C78.4896 303.182 78.2865 301.548 77.7667 299.622C77.4654 298.507 76.0384 298.304 75.3716 299.236C72.0718 303.852 69.3765 306.634 64.3819 309.969C63.9502 310.257 63.4076 310.308 62.9298 310.112C61.9885 309.724 61.6308 308.543 62.1879 307.672C75.342 287.097 83.7766 274.936 98.3615 255.183C99.1657 254.094 98.5212 252.512 97.2006 252.348L90.1452 251.468C89.3007 251.363 88.4441 251.625 87.79 252.184C68.3089 268.847 58.3155 279.384 42.3494 298.474C42.0496 298.833 41.5407 298.931 41.1386 298.701C40.6663 298.431 40.4997 297.817 40.7679 297.335L64.7509 254.217C65.1823 253.442 64.8174 252.45 63.9818 252.206C60.6383 251.231 58.2866 251.242 54.804 252.396C54.1919 252.599 53.6335 252.964 53.1735 253.426ZM108.332 271.028L105.787 274.082C104.787 275.282 103.026 275.412 101.869 274.371C100.74 273.355 100.605 271.599 101.566 270.413L104.07 267.323C105.06 266.102 106.825 265.941 108.009 266.963C109.197 267.99 109.343 269.816 108.332 271.028ZM196.477 288.847C186.397 292.379 178.619 301.257 174.943 310.92C174.683 311.604 174.79 312.375 175.202 312.975C175.955 314.072 177.466 314.256 178.447 313.371L189.176 303.698L198.796 292.588C199.651 291.601 199.532 290.08 198.534 289.247C197.956 288.764 197.182 288.6 196.477 288.847Z" fill="#40A3EA"/>
<path d="M236.923 314.836H225.151V261.505H257.513V271.761H236.923V283.136H257.513V293.392H236.923V314.836Z" fill="#40A3EA"/>
<path d="M271.591 314.836H258.714L275.154 261.505H288.716L305.155 314.836H292.277L288.716 305.501H275.154L271.591 314.836Z" fill="#40A3EA"/>
<path d="M407.906 288.949V287.392C407.906 273.095 396.634 261.505 382.733 261.505C368.828 261.505 357.557 273.095 357.557 287.392V288.949C357.557 303.246 368.828 314.836 382.733 314.836C396.634 314.836 407.906 303.246 407.906 288.949Z" fill="#40A3EA"/>
<path d="M415.845 261.505L411.462 314.836H422.01L425.081 283.882H426.531L437.089 314.836H443.248L452.791 283.882H454.602L456.83 314.836H468.177L463.243 261.505H450.777L439.389 292.273L428.724 261.505H415.845Z" fill="#40A3EA"/>
<path d="M474.229 261.505V314.836H489.239V294.697H492.861C501.774 294.697 509 287.267 509 278.101C509 268.935 501.774 261.505 492.861 261.505H474.229Z" fill="#40A3EA"/>
<path d="M354.2 274.499L343.286 281.368C337.303 271.065 324.806 273.053 320.406 280.826C318.118 285.706 317.766 290.045 320.406 295.106C326.39 303.782 337.126 302.879 343.286 295.106L354.2 301.613C341.879 320.955 317.942 317.339 309.318 301.613C304.361 292.575 304.637 282.453 309.318 274.499C318.998 258.05 342.406 255.7 354.2 274.499Z" fill="#40A3EA"/>
</svg>
